<?xml version='1.0' encoding='UTF-8' standalone='no'?>
<svg height="432pt" width="576pt" viewBox="0 0 576 432" xmlns:xlink="http://www.w3.org/1999/xlink" xmlns="http://www.w3.org/2000/svg">
 <title>gl2ps_renderer figure</title>
 <desc>
Creator: GL2PS 1.4.0, (C) 1999-2017 C. Geuzaine
For: Octave
CreationDate: Wed Oct 18 11:52:19 2023
</desc>
 <defs/>
 <polygon fill="#ffffff" points="0,0 576,0 576,432 0,432"/>
 <g>
  <polygon shape-rendering="crispEdges" fill="#ffffff" points="0,432 576,432 576,0 0,0"/>
  <clipPath id="cp00576432">
   <polygon points="0,432 576,432 576,0 0,0"/>
  </clipPath>
  <g clip-path="url(#cp00576432)">
   <polygon shape-rendering="crispEdges" fill="#ffffff" points="74.88,384.48 521.28,384.48 521.28,32.4 74.88,32.4"/>
   <polyline fill="none" stroke-linecap="butt" points="122.496,384.48 122.496,380.015" stroke="#262626" stroke-width="0.5" stroke-linejoin="miter"/>
   <polyline fill="none" stroke-linecap="butt" points="122.496,32.4 122.496,36.8651" stroke="#262626" stroke-width="0.5" stroke-linejoin="miter"/>
   <polyline fill="none" stroke-linecap="butt" points="183.157,384.48 183.157,380.015" stroke="#262626" stroke-width="0.5" stroke-linejoin="miter"/>
   <polyline fill="none" stroke-linecap="butt" points="183.157,32.4 183.157,36.8651" stroke="#262626" stroke-width="0.5" stroke-linejoin="miter"/>
   <polyline fill="none" stroke-linecap="butt" points="243.819,384.48 243.819,380.015" stroke="#262626" stroke-width="0.5" stroke-linejoin="miter"/>
   <polyline fill="none" stroke-linecap="butt" points="243.819,32.4 243.819,36.8651" stroke="#262626" stroke-width="0.5" stroke-linejoin="miter"/>
   <polyline fill="none" stroke-linecap="butt" points="304.48,384.48 304.48,380.015" stroke="#262626" stroke-width="0.5" stroke-linejoin="miter"/>
   <polyline fill="none" stroke-linecap="butt" points="304.48,32.4 304.48,36.8651" stroke="#262626" stroke-width="0.5" stroke-linejoin="miter"/>
   <polyline fill="none" stroke-linecap="butt" points="365.142,384.48 365.142,380.015" stroke="#262626" stroke-width="0.5" stroke-linejoin="miter"/>
   <polyline fill="none" stroke-linecap="butt" points="365.142,32.4 365.142,36.8651" stroke="#262626" stroke-width="0.5" stroke-linejoin="miter"/>
   <polyline fill="none" stroke-linecap="butt" points="425.803,384.48 425.803,380.015" stroke="#262626" stroke-width="0.5" stroke-linejoin="miter"/>
   <polyline fill="none" stroke-linecap="butt" points="425.803,32.4 425.803,36.8651" stroke="#262626" stroke-width="0.5" stroke-linejoin="miter"/>
   <polyline fill="none" stroke-linecap="butt" points="486.465,384.48 486.465,380.015" stroke="#262626" stroke-width="0.5" stroke-linejoin="miter"/>
   <polyline fill="none" stroke-linecap="butt" points="486.465,32.4 486.465,36.8651" stroke="#262626" stroke-width="0.5" stroke-linejoin="miter"/>
   <text font-weight="normal" font-family="FreeSans" transform="translate(113.496,399.982) rotate(-0,9,-8)" font-style="normal" xml:space="preserve" font-size="10">
    <tspan fill="rgb(38,38,38)" x="0 6 12 " y="-0">200</tspan>
   </text>
   <text font-weight="normal" font-family="FreeSans" transform="translate(174.157,399.982) rotate(-0,9,-8)" font-style="normal" xml:space="preserve" font-size="10">
    <tspan fill="rgb(38,38,38)" x="0 6 12 " y="-0">400</tspan>
   </text>
   <text font-weight="normal" font-family="FreeSans" transform="translate(234.819,399.982) rotate(-0,9,-8)" font-style="normal" xml:space="preserve" font-size="10">
    <tspan fill="rgb(38,38,38)" x="0 6 12 " y="-0">600</tspan>
   </text>
   <text font-weight="normal" font-family="FreeSans" transform="translate(295.48,399.982) rotate(-0,9,-8)" font-style="normal" xml:space="preserve" font-size="10">
    <tspan fill="rgb(38,38,38)" x="0 6 12 " y="-0">800</tspan>
   </text>
   <text font-weight="normal" font-family="FreeSans" transform="translate(353.142,399.982) rotate(-0,12,-8)" font-style="normal" xml:space="preserve" font-size="10">
    <tspan fill="rgb(38,38,38)" x="0 6 12 18 " y="-0">1000</tspan>
   </text>
   <text font-weight="normal" font-family="FreeSans" transform="translate(413.803,399.982) rotate(-0,12,-8)" font-style="normal" xml:space="preserve" font-size="10">
    <tspan fill="rgb(38,38,38)" x="0 6 12 18 " y="-0">1200</tspan>
   </text>
   <text font-weight="normal" font-family="FreeSans" transform="translate(474.465,399.982) rotate(-0,12,-8)" font-style="normal" xml:space="preserve" font-size="10">
    <tspan fill="rgb(38,38,38)" x="0 6 12 18 " y="-0">1400</tspan>
   </text>
   <polyline fill="none" stroke-linecap="butt" points="74.88,369.773 79.348,369.773" stroke="#262626" stroke-width="0.5" stroke-linejoin="miter"/>
   <polyline fill="none" stroke-linecap="butt" points="521.28,369.773 516.812,369.773" stroke="#262626" stroke-width="0.5" stroke-linejoin="miter"/>
   <polyline fill="none" stroke-linecap="butt" points="74.88,273.194 79.348,273.194" stroke="#262626" stroke-width="0.5" stroke-linejoin="miter"/>
   <polyline fill="none" stroke-linecap="butt" points="521.28,273.194 516.812,273.194" stroke="#262626" stroke-width="0.5" stroke-linejoin="miter"/>
   <polyline fill="none" stroke-linecap="butt" points="74.88,176.615 79.348,176.615" stroke="#262626" stroke-width="0.5" stroke-linejoin="miter"/>
   <polyline fill="none" stroke-linecap="butt" points="521.28,176.615 516.812,176.615" stroke="#262626" stroke-width="0.5" stroke-linejoin="miter"/>
   <polyline fill="none" stroke-linecap="butt" points="74.88,80.0355 79.348,80.0355" stroke="#262626" stroke-width="0.5" stroke-linejoin="miter"/>
   <polyline fill="none" stroke-linecap="butt" points="521.28,80.0355 516.812,80.0355" stroke="#262626" stroke-width="0.5" stroke-linejoin="miter"/>
   <text font-weight="normal" font-family="FreeSans" transform="translate(33.8755,373.773) rotate(-0,36,-4)" font-style="normal" xml:space="preserve" font-size="10">
    <tspan fill="rgb(38,38,38)" x="0 6 12 18 24 30 " y="-0">200000</tspan>
   </text>
   <text font-weight="normal" font-family="FreeSans" transform="translate(33.8755,277.194) rotate(-0,36,-4)" font-style="normal" xml:space="preserve" font-size="10">
    <tspan fill="rgb(38,38,38)" x="0 6 12 18 24 30 " y="-0">300000</tspan>
   </text>
   <text font-weight="normal" font-family="FreeSans" transform="translate(33.8755,180.615) rotate(-0,36,-4)" font-style="normal" xml:space="preserve" font-size="10">
    <tspan fill="rgb(38,38,38)" x="0 6 12 18 24 30 " y="-0">400000</tspan>
   </text>
   <text font-weight="normal" font-family="FreeSans" transform="translate(33.8755,84.0355) rotate(-0,36,-4)" font-style="normal" xml:space="preserve" font-size="10">
    <tspan fill="rgb(38,38,38)" x="0 6 12 18 24 30 " y="-0">500000</tspan>
   </text>
   <polyline fill="none" stroke-linecap="square" points="74.88,384.48 521.28,384.48" stroke="#262626" stroke-width="0.5" stroke-linejoin="miter" stroke-dasharray="16,0"/>
   <polyline fill="none" stroke-linecap="square" points="74.88,32.4 521.28,32.4" stroke="#262626" stroke-width="0.5" stroke-linejoin="miter" stroke-dasharray="16,0"/>
   <polyline fill="none" stroke-linecap="square" points="74.88,384.48 74.88,32.4" stroke="#262626" stroke-width="0.5" stroke-linejoin="miter" stroke-dasharray="16,0"/>
   <polyline fill="none" stroke-linecap="square" points="521.28,384.48 521.28,32.4" stroke="#262626" stroke-width="0.5" stroke-linejoin="miter" stroke-dasharray="16,0"/>
   <text font-weight="normal" font-family="FreeSans" transform="translate(289.58,413.982) rotate(-0,8.5,-9)" font-style="normal" xml:space="preserve" font-size="11">
    <tspan fill="rgb(38,38,38)" x="0 3 7 9 15 " y="-0">trial</tspan>
   </text>
   <text font-weight="normal" font-family="FreeSans" transform="translate(13.8755,208.44) rotate(-90,15,0)" font-style="normal" xml:space="preserve" font-size="11">
    <tspan fill="rgb(38,38,38)" x="0 6 11 17 19 25 " y="-2">cycles</tspan>
   </text>
   <text font-weight="bold" font-family="FreeSans" transform="translate(233.58,22.4) rotate(-0,64.5,0)" font-style="normal" xml:space="preserve" font-size="11">
    <tspan fill="rgb(0,0,0)" x="0 7 13 19 25 32 36 39 46 53 56 60 63 73 79 85 88 95 99 102 106 113 120 123 " y="-0">Execution times of foo.s</tspan>
   </text>
   <polyline fill="none" stroke-linecap="butt" points="74.4336,161.01 74.5734,161.038 74.8767,147.424 75.18,161.03 75.4834,160.976 75.7867,160.996 76.09,160.978 76.3933,161.03 76.6966,161.023 76.9999,160.987 77.3032,161.038 77.6065,160.982 77.9098,161.057 78.2131,160.961 78.5164,161.036 78.8197,160.933 79.123,161.072 79.4263,160.979 79.7297,161.025 80.033,160.984 80.3363,161.012 80.6396,149.949 80.9429,160.967 81.2462,161.055 81.5495,160.969 81.8528,161.029 82.1561,160.937 82.4594,161.07 82.7627,160.962 83.066,161.033 83.3693,160.99 83.6726,161.015 83.976,161 84.2793,160.988 84.5826,161.015 84.8859,160.949 85.1892,161.084 85.4925,160.956 85.7958,138.842 86.0991,177.071 86.4024,164.914 86.7057,177.062 87.009,177.082 87.3123,177.11 87.6157,177.047 87.9189,177.096 88.2223,177.074 88.5256,177.11 88.8289,177.07 89.1322,177.059 89.4355,177.102 89.7388,177.114 90.0421,177.059 90.3454,158.118 90.6487,191.894 90.952,191.975 91.2553,191.911 91.5587,191.924 91.862,191.928 92.1653,191.922 92.4686,185.351 92.7719,191.906 93.0752,191.93 93.3785,191.916 93.6818,191.923 93.9851,191.917 94.2884,191.919 94.5917,191.927 94.895,191.877 95.1747,32.048" stroke="#0071bc" stroke-width="0.5" stroke-linejoin="round"/>
   <polyline fill="none" stroke-linecap="butt" points="95.237,32.048 95.5016,124.693 95.805,205.696 96.1083,205.657 96.4116,205.651 96.7149,205.649 97.0182,205.668 97.3215,205.661 97.6248,205.709 97.9281,205.642 98.2314,205.655 98.5347,197.469 98.838,205.594 99.1413,205.729 99.4446,205.659 99.7479,205.647 100.051,205.655 100.355,205.676 100.658,205.696 100.961,205.666 101.264,205.649 101.568,205.622 101.871,205.714 102.174,205.683 102.478,205.674 102.781,205.649 103.084,205.649 103.388,205.679 103.691,205.689 103.994,205.663 104.298,205.618 104.601,182.603 104.904,218.391 105.207,212.513 105.511,218.427 105.814,218.4 106.117,218.447 106.421,179.08 106.724,205.672 107.027,205.666 107.331,205.651 107.634,205.643 107.937,172.001 108.241,218.393 108.544,218.431 108.847,218.433 109.15,218.437 109.454,218.405 109.757,218.4 110.06,218.455 110.364,218.386 110.667,218.455 110.97,218.433 111.274,218.365 111.577,218.496 111.88,212.21 112.184,218.429 112.487,218.443 112.79,218.395 113.093,218.427 113.397,218.451 113.7,218.435 114.003,218.435 114.307,218.397 114.61,218.454 114.913,218.402 115.217,218.434 115.52,218.442 115.823,218.36 116.127,218.495 116.43,218.383 116.733,218.446 117.036,218.44 117.34,218.408 117.643,218.466 117.946,218.4 118.25,218.43 118.553,212.686 118.856,218.393 119.16,218.455 119.463,218.414 119.766,218.389 120.07,218.488 120.373,218.389 120.676,218.462 120.979,218.406 121.283,218.422 121.586,218.437 121.889,218.375 122.193,218.459 122.496,218.354 122.799,218.477 123.103,218.431 123.406,218.398 123.709,218.464 124.013,218.387 124.316,218.438 124.619,191.478 124.922,230.266 125.226,224.733 125.529,230.196 125.832,230.385 126.136,230.272 126.439,230.325 126.742,230.31 127.046,230.28 127.349,230.339 127.652,230.264 127.956,230.322 128.259,230.274 128.562,230.323 128.865,230.333 129.169,230.262 129.472,230.327 129.775,230.299 130.079,230.278 130.382,230.327 130.685,230.267 130.989,230.299 131.292,230.325 131.595,230.283 131.899,230.331 132.202,230.272 132.505,224.936 132.808,230.264 133.112,230.313 133.415,230.315 133.718,230.235 134.022,230.381 134.325,230.268 134.628,230.31 134.932,230.313 135.235,230.285 135.538,230.346 135.842,230.256 136.145,230.328 136.448,230.307 136.751,230.28 137.055,230.335 137.358,230.232 137.661,230.377 137.965,230.299 138.268,230.287 138.571,230.333 138.875,230.256 139.178,230.333 139.481,223.734 139.785,230.317 140.088,230.309 140.391,230.268 140.694,230.304 140.998,230.315 141.301,230.319 141.604,230.316 141.908,230.28 142.211,230.337 142.514,230.274 142.818,230.31 143.121,230.31 143.424,230.251 143.728,230.379 144.031,207.671 144.334,241.408 144.637,241.378 144.941,241.361 145.244,241.384 145.547,241.389 145.851,241.433 146.154,241.369 146.457,231.936 146.761,241.416 147.064,241.395 147.367,241.356 147.671,241.361 147.974,241.46 148.277,241.401 148.58,241.373 148.884,241.379 149.187,241.414 149.49,241.416 149.794,241.387 150.097,241.364 150.4,241.357 150.704,241.456 151.007,241.393 151.31,221.849 151.614,251.77 151.917,251.768 152.22,251.771 152.523,251.774 152.827,251.77 153.13,251.74 153.433,251.806 153.737,242.865 154.04,250.787 154.343,251.761 154.647,251.745 154.95,251.757 155.253,251.761 155.557,251.761 155.86,251.74 156.163,251.812 156.466,251.769 156.77,251.774 157.073,251.774 157.376,251.765 157.68,251.762 157.983,251.765 158.286,251.768 158.59,251.727 158.893,251.798 159.196,251.761 159.499,251.759 159.803,251.755 160.106,251.759 160.409,251.765 160.713,235.188 161.016,261.475 161.319,254.561 161.623,261.523 161.926,261.482 162.229,261.498 162.533,241.381 162.836,270.628 163.139,270.643 163.442,270.587 163.746,270.638 164.049,270.631 164.352,270.652 164.656,270.616 164.959,270.589 165.262,270.635 165.566,270.641 165.869,270.62 166.172,270.571 166.476,270.671 166.779,270.644 167.082,270.62 167.385,270.602 167.689,270.633 167.992,270.655 168.295,270.602 168.599,270.61 168.902,270.604 169.205,262.563 169.509,270.63 169.812,270.6 170.115,270.631 170.419,270.62 170.722,270.661 171.025,270.592 171.328,270.627 171.632,270.648 171.935,270.621 172.238,270.597 172.542,270.602 172.845,270.65 173.148,270.6 173.452,270.634 173.755,270.618 174.058,270.644 174.362,270.63 174.665,270.595 174.968,270.616 175.271,270.652 175.575,270.623 175.878,270.571 176.181,270.663 176.485,270.648 176.788,270.623 177.091,264.454 177.395,270.609 177.698,270.648 178.001,270.644 178.305,270.568 178.608,270.646 178.911,270.64 179.214,270.639 179.518,270.606 179.821,270.599 180.124,270.646 180.428,270.633 180.731,270.61 181.034,270.585 181.338,270.686 181.641,270.633 181.944,270.602 182.248,270.618 182.551,249.904 182.854,279.252 183.157,279.216 183.461,279.176 183.764,279.287 184.067,279.185 184.371,255.605 184.674,287.394 184.977,282.557 185.281,287.355 185.584,287.302 185.887,287.348 186.191,287.299 186.494,287.371 186.797,287.293 187.1,287.339 187.404,287.329 187.707,287.348 188.01,287.301 188.314,287.346 188.617,287.302 188.92,287.342 189.224,287.315 189.527,287.342 189.83,287.297 190.134,287.358 190.437,287.337 190.74,287.317 191.043,287.348 191.347,287.302 191.65,287.366 191.953,287.291 192.257,287.366 192.56,287.266 192.863,287.396 193.167,287.289 193.47,283.016 193.773,287.295 194.077,287.361 194.38,287.292 194.683,287.37 194.986,287.282 195.29,287.356 195.593,287.27 195.896,287.387 196.2,287.305 196.503,287.344 196.806,287.313 197.11,287.326 197.413,287.333 197.716,287.318 198.02,287.34 198.323,287.281 198.626,287.384 198.929,287.298 199.233,287.361 199.536,287.296 199.839,287.358 200.143,287.289 200.446,287.367 200.749,287.299 201.053,287.333 201.356,263.91 201.659,294.952 201.963,290.485 202.266,295.007 202.569,294.956 202.872,294.985 203.176,295.005 203.479,273.117 203.782,302.241 204.086,302.213 204.389,302.203 204.692,302.235 204.996,302.254 205.299,302.217 205.602,302.201 205.906,302.195 206.209,302.277 206.512,302.219 206.815,302.193 207.119,302.21 207.422,302.243 207.725,302.235 208.029,302.2 208.332,302.206 208.635,302.219 208.939,302.283 209.242,302.208 209.545,302.203 209.849,302.238 210.152,302.248 210.455,302.228 210.758,302.197 211.062,297.929 211.365,302.246 211.668,302.221 211.972,302.204 212.275,302.223 212.578,302.246 212.882,302.201 213.185,302.229 213.488,302.204 213.792,302.252 214.095,302.243 214.398,302.203 214.701,302.207 215.005,301.871 215.308,302.231 215.611,302.193 215.915,302.219 216.218,302.256 216.521,302.203 216.825,302.235 217.128,302.214 217.431,302.248 217.735,302.235 218.038,302.208 218.341,302.209 218.644,302.238 218.948,302.239 219.251,302.189 219.554,302.233 219.858,297.325 220.161,302.241 220.464,302.2 220.768,302.212 221.071,302.217 221.374,270.182 221.678,295.005 221.981,294.987 222.284,294.942 222.587,295.015 222.891,294.958 223.194,294.991 223.497,295.015 223.801,294.956 224.104,294.965 224.407,295.01 224.711,294.962 225.014,294.985 225.317,295.012 225.62,294.924 225.924,295.03 226.227,294.992 226.53,294.96 226.834,295.013 227.137,294.989 227.44,294.956 227.744,271.641 228.047,302.211 228.35,302.21 228.654,297.761 228.957,302.203 229.26,302.207 229.563,302.235 229.867,302.223 230.17,302.246 230.473,302.19 230.777,302.229 231.08,302.248 231.383,302.216 231.687,302.202 231.99,302.223 232.293,302.246 232.597,302.201 232.9,302.233 233.203,302.217 233.507,302.248 233.81,302.239 234.113,302.205 234.416,302.209 234.72,302.235 235.023,302.25 235.326,302.188 235.63,302.228 235.933,302.225 236.236,302.252 236.54,302.219 236.843,302.196 237.146,302.227 237.449,297.927 237.753,302.218 238.056,302.196 238.359,302.229 238.663,302.25 238.966,302.239 239.269,302.174 239.573,302.245 239.876,302.245 240.179,302.239 240.483,302.201 240.786,302.211 241.089,302.241 241.392,302.237 241.696,302.211 241.999,302.176 242.302,302.268 242.606,302.241 242.909,302.209 243.212,302.205 243.516,302.227 243.819,302.254 244.122,302.229 244.426,302.2 244.729,302.191 245.032,302.28 245.335,302.225 245.639,302.208 245.942,302.208 246.245,302.246 246.549,298.059 246.852,302.196 247.155,302.198 247.459,302.241 247.762,302.22 248.065,302.243 248.369,302.205 248.672,302.241 248.975,302.252 249.278,302.222 249.582,302.199 249.885,302.218 250.188,302.248 250.492,302.205 250.795,302.233 251.098,302.212 251.402,302.248 251.705,302.235 252.008,302.202 252.312,302.212 252.615,302.237 252.918,302.243 253.221,302.186 253.525,302.237 253.828,302.23 254.131,302.252 254.435,302.217 254.738,302.203 255.041,302.224 255.345,298.037 255.648,302.214 255.951,302.2 256.255,302.229 256.558,302.227 256.861,302.266 257.164,302.195 257.468,302.22 257.771,302.252 258.074,302.229 258.378,302.199 258.681,302.211 258.984,302.235 259.288,302.216 259.591,302.241 259.894,302.202 260.198,302.231 260.501,302.246 260.804,302.212 261.107,302.196 261.411,302.218 261.714,302.248 262.017,302.199 262.321,302.239 262.624,302.218 262.927,302.25 263.231,302.235 263.534,302.205 263.837,302.211 264.141,302.237 264.444,298.002 264.747,302.203 265.05,302.207 265.354,302.241 265.657,302.246 265.96,302.207 266.264,302.205 266.567,302.215 266.87,302.281 267.174,302.218 267.477,302.196 267.78,302.229 268.084,302.25 268.387,302.225 268.69,302.2 268.993,302.223 269.297,302.224 269.6,302.266 269.903,302.203 270.207,302.217 270.51,302.246 270.813,302.235 271.117,302.211 271.42,302.205 271.723,302.231 272.027,302.227 272.33,302.246 272.633,302.198 272.936,302.231 273.24,295.42 273.543,302.21 273.846,302.202 274.15,302.241 274.453,302.248 274.756,302.216 275.06,302.178 275.363,302.262 275.666,302.246 275.97,302.225 276.273,302.199 276.576,302.224 276.879,302.25 277.183,302.229 277.486,302.201 277.789,302.191 278.093,302.279 278.396,302.239 278.699,302.216 279.003,302.212 279.306,302.229 279.609,302.252 279.913,302.219 280.216,302.201 280.519,302.204 280.822,302.285 281.126,302.224 281.429,302.201 281.732,302.218 282.036,302.252 282.339,297.823 282.642,302.203 282.946,302.223 283.249,302.252 283.552,302.207 283.856,302.233 284.159,302.214 284.462,302.248 284.765,302.248 285.069,302.209 285.372,302.213 285.675,302.235 285.979,302.246 286.282,302.19 286.585,302.228 286.889,302.231 287.192,302.248 287.495,302.227 287.799,302.198 288.102,302.221 288.405,302.25 288.708,302.231 289.012,302.182 289.315,245.514 289.618,302.231 289.922,291.384 290.225,301.896 290.528,302.219 290.832,302.241 291.135,295.843 291.438,302.19 291.742,302.231 292.045,302.248 292.348,302.191 292.651,302.233 292.955,302.211 293.258,302.248 293.561,302.241 293.865,302.201 294.168,302.207 294.471,302.241 294.775,302.243 295.078,302.184 295.381,302.234 295.685,302.235 295.988,302.256 296.291,302.219 296.594,302.2 296.898,302.229 297.201,302.25 297.504,302.216 297.808,302.172 298.111,302.252 298.414,302.248 298.718,302.237 299.021,302.209 299.324,302.201 299.628,302.238 299.931,296.586 300.234,302.203 300.537,302.207 300.841,302.245 301.144,302.236 301.447,302.182 301.751,302.243 302.054,302.241 302.357,302.241 302.661,302.216 302.964,302.2 303.267,302.231 303.57,302.248 303.874,302.216 304.177,302.17 304.48,302.252 304.784,302.237 305.087,302.229 305.39,302.203 305.694,302.213 305.997,302.243 306.3,302.237 306.604,302.201 306.907,302.176 307.21,302.272 307.513,302.246 307.817,302.215 308.12,302.204 308.423,302.231 308.727,302.248 309.03,297.13 309.333,302.207 309.637,302.226 309.94,302.25 310.243,302.199 310.547,302.235 310.85,302.227 311.153,302.25 311.456,302.229 311.76,302.202 312.063,302.223 312.366,302.246 312.67,302.233 312.973,302.187 313.276,302.235 313.58,302.243 313.883,302.252 314.186,302.213 314.49,302.205 314.793,302.235 315.096,302.245 315.399,302.218 315.703,302.172 316.006,302.256 316.309,302.241 316.613,302.225 316.916,302.194 317.219,302.219 317.523,302.246 317.826,296.655 318.129,302.186 318.433,302.224 318.736,302.25 319.039,302.225 319.342,302.174 319.646,302.246 319.949,302.248 320.252,302.242 320.556,302.208 320.859,302.208 321.162,302.243 321.466,302.238 321.769,302.208 322.072,302.178 322.376,302.262 322.679,302.248 322.982,302.227 323.285,302.196 323.589,302.225 323.892,302.256 324.195,302.229 324.499,302.197 324.802,302.199 325.105,302.283 325.409,302.226 325.712,302.201 326.015,302.207 326.319,302.239 326.622,302.245 326.925,296.903 327.228,302.217 327.532,302.237 327.835,302.245 328.138,302.19 328.442,302.237 328.745,302.231 329.048,302.252 329.352,302.219 329.655,302.2 329.958,302.233 330.262,302.239 330.565,302.221 330.868,302.172 331.171,302.248 331.475,302.246 331.778,302.237 332.081,302.207 332.385,302.213 332.688,302.239 332.991,302.237 333.295,302.217 333.598,302.182 333.901,302.268 334.205,302.248 334.508,302.219 334.811,302.207 335.114,302.218 335.418,302.248 335.721,296.288 336.024,302.205 336.328,302.237 336.631,302.25 336.934,302.223 337.238,302.172 337.541,302.254 337.844,302.248 338.148,302.238 338.451,302.193 338.754,302.215 339.057,302.246 339.361,302.246 339.664,302.208 339.967,302.182 340.271,302.273 340.574,302.248 340.877,302.218 341.181,302.201 341.484,302.231 341.787,302.248 342.091,302.221 342.394,302.193 342.697,302.193 343,302.281 343.304,302.228 343.607,302.205 343.91,302.211 344.214,302.248 344.517,302.234 344.82,296.628 345.124,302.214 345.427,302.25 345.73,302.223 346.034,302.174 346.337,302.245 346.64,302.231 346.943,302.235 347.247,302.213 347.55,302.207 347.853,302.23 348.157,302.245 348.46,302.218 348.763,302.172 349.067,302.258 349.37,302.243 349.673,302.231 349.977,302.199 350.28,302.218 350.583,302.246 350.886,302.229 351.19,302.204 351.493,302.184 351.796,302.273 352.1,302.241 352.403,302.212 352.706,302.201 353.01,302.23 353.313,302.245 353.616,296.066 353.92,302.207 354.223,302.241 354.526,302.218 354.829,302.248 355.133,302.202 355.436,302.231 355.739,302.246 356.043,302.219 356.346,302.202 356.649,302.223 356.953,302.245 357.256,302.202 357.559,302.241 357.863,302.221 358.166,302.246 358.469,302.238 358.772,302.205 359.076,302.216 359.379,302.241 359.682,302.246 359.986,302.186 360.289,302.237 360.592,302.221 360.896,302.246 361.199,302.223 361.502,302.193 361.806,302.223 362.109,302.248 362.412,302.227 362.715,295.159 363.019,302.232 363.322,302.248 363.625,302.219 363.929,302.178 364.232,302.25 364.535,302.245 364.839,302.232 365.142,302.201 365.445,302.214 365.749,302.241 366.052,302.23 366.355,302.208 366.658,302.19 366.962,302.272 367.265,302.246 367.568,302.218 367.872,302.199 368.175,302.234 368.478,302.256 368.782,302.217 369.085,302.195 369.388,302.195 369.692,302.281 369.995,302.226 370.298,301.435 370.601,302.231 370.905,302.254 371.208,302.223 371.511,296.16 371.815,302.233 372.118,302.246 372.421,302.218 372.725,302.203 373.028,302.199 373.331,302.294 373.635,302.229 373.938,302.202 374.241,302.223 374.544,302.241 374.848,302.231 375.151,302.209 375.454,302.213 375.758,302.22 376.061,302.272 376.364,302.209 376.668,302.201 376.971,302.229 377.274,302.254 377.578,302.223 377.881,302.198 378.184,302.227 378.487,302.223 378.791,302.264 379.094,302.199 379.397,302.218 379.701,302.252 380.004,302.233 380.307,302.205 380.611,295.358 380.914,302.286 381.217,302.223 381.521,302.203 381.824,302.218 382.127,302.25 382.43,302.237 382.734,302.209 383.037,302.216 383.34,302.212 383.644,302.276 383.947,302.214 384.25,302.206 384.554,302.231 384.857,302.252 385.16,302.219 385.464,302.187 385.767,302.225 386.07,302.224 386.373,302.258 386.677,302.193 386.98,302.215 387.283,302.246 387.587,302.237 387.89,302.211 388.193,302.209 388.497,302.239 388.8,302.216 389.103,302.245 389.406,297.693 389.71,302.246 390.013,302.243 390.316,302.207 390.62,302.203 390.923,302.223 391.226,302.248 391.53,302.201 391.833,302.235 392.136,302.227 392.44,302.245 392.743,302.221 393.046,302.198 393.349,302.223 393.653,302.248 393.956,302.229 394.259,302.185 394.563,302.243 394.866,302.239 395.169,302.248 395.473,302.211 395.776,302.201 396.079,302.233 396.383,302.248 396.686,302.219 396.989,302.176 397.292,302.262 397.596,302.252 397.899,302.223 398.202,302.2 398.506,297.421 398.809,302.287 399.112,302.215 399.416,302.203 399.719,302.223 400.022,302.25 400.326,302.229 400.629,302.204 400.932,302.218 401.235,302.221 401.539,302.266 401.842,302.216 402.145,302.203 402.449,302.237 402.752,302.241 403.055,302.205 403.359,302.193 403.662,302.23 403.965,302.223 404.269,302.252 404.572,302.197 404.875,302.225 405.178,302.252 405.482,302.229 405.785,302.2 406.088,302.208 406.392,302.246 406.695,302.213 406.998,302.243 407.302,291.957 407.605,302.176 407.908,302.195 408.212,302.232 408.515,302.209 408.818,302.252 409.121,302.237 409.425,302.205 409.728,302.212 410.031,302.241 410.335,302.24 410.638,302.182 410.941,302.241 411.245,302.231 411.548,302.246 411.851,302.214 412.155,302.204 412.458,302.227 412.761,302.25 413.064,302.223 413.368,302.18 413.671,302.255 413.974,302.252 414.278,302.235 414.581,302.202 414.884,302.21 415.188,302.246 415.491,302.243 415.794,302.208 416.098,302.178 416.401,297.767 416.704,302.241 417.007,302.204 417.311,302.21 417.614,302.212 417.917,302.277 418.221,302.209 418.524,302.205 418.827,302.224 419.131,302.25 419.434,302.224 419.737,302.19 420.041,302.228 420.344,302.223 420.647,302.264 420.95,302.201 421.254,302.218 421.557,302.243 421.86,302.239 422.164,302.21 422.467,302.206 422.77,302.241 423.074,302.224 423.377,302.254 423.68,302.195 423.984,302.231 424.287,302.25 424.59,302.224 424.893,302.197 425.197,294.283 425.5,302.248 425.803,302.197 426.107,302.232 426.41,302.231 426.713,302.246 427.017,302.21 427.32,302.19 427.623,302.221 427.927,302.256 428.23,302.227 428.533,302.174 428.836,302.252 429.14,302.252 429.443,302.241 429.746,302.211 430.05,302.195 430.353,302.245 430.656,302.245 430.96,302.205 431.263,302.174 431.566,302.265 431.87,302.246 432.173,302.224 432.476,302.201 432.779,302.225 433.083,302.254 433.386,302.229 433.689,302.196 433.993,302.197 434.296,297.66 434.599,302.227 434.903,302.186 435.206,302.22 435.509,302.225 435.813,302.269 436.116,302.206 436.419,302.214 436.722,302.239 437.026,302.235 437.329,302.212 437.632,302.206 437.936,302.233 438.239,302.217 438.542,302.245 438.846,302.193 439.149,302.233 439.452,302.246 439.756,302.221 440.059,302.199 440.362,302.218 440.665,302.246 440.969,302.208 441.272,302.239 441.575,302.205 441.879,302.243 442.182,302.239 442.485,302.217 442.789,302.197 443.092,293.9 443.395,302.233 443.699,302.178 444.002,302.244 444.305,302.243 444.608,302.245 444.912,302.21 445.215,302.204 445.518,302.235 445.822,302.248 446.125,302.218 446.428,302.178 446.732,302.264 447.035,302.245 447.338,302.233 447.642,302.199 447.945,302.226 448.248,302.248 448.551,302.233 448.855,302.205 449.158,302.19 449.461,302.285 449.765,302.243 450.068,302.214 450.371,302.202 450.675,302.239 450.978,302.245 451.281,302.206 451.585,302.202 451.888,302.202 452.191,297.263 452.494,302.213 452.798,302.205 453.101,302.233 453.404,302.229 453.708,302.252 454.011,302.198 454.314,302.223 454.618,302.248 454.921,302.223 455.224,302.202 455.527,302.212 455.831,302.246 456.134,302.213 456.437,302.235 456.741,302.213 457.044,302.238 457.347,302.246 457.651,302.215 457.954,302.201 458.257,302.233 458.561,302.245 458.864,302.193 459.167,302.232 459.47,302.212 459.774,302.248 460.077,302.232 460.38,302.203 460.684,302.212 460.987,293.351 461.29,302.217 461.594,302.172 461.897,302.258 462.2,302.248 462.504,302.221 462.807,302.201 463.11,302.219 463.413,302.252 463.717,302.231 464.02,302.204 464.323,302.18 464.627,302.281 464.93,302.241 465.233,302.212 465.537,302.204 465.84,302.241 466.143,302.248 466.447,302.214 466.75,302.197 467.053,302.201 467.356,302.283 467.66,302.222 467.963,302.195 468.266,302.218 468.57,302.246 468.873,302.234 469.176,302.203 469.48,302.212 469.783,302.223 470.086,296.773 470.39,302.199 470.693,302.217 470.996,302.245 471.299,302.219 471.603,302.235 471.906,302.196 472.209,302.245 472.513,302.248 472.816,302.218 473.119,302.196 473.423,302.219 473.726,302.256 474.029,302.204 474.333,302.231 474.636,302.224 474.939,302.248 475.242,302.233 475.546,302.201 475.849,302.217 476.152,302.245 476.456,302.231 476.759,302.18 477.062,302.235 477.366,302.235 477.669,302.233 477.972,302.215 478.276,302.203 478.579,302.233 478.882,297.656 479.185,302.215 479.489,302.205 479.792,302.239 480.095,302.219 480.399,302.254 480.702,302.198 481.005,302.227 481.309,302.253 481.612,302.223 481.915,302.202 482.219,302.218 482.522,302.248 482.825,302.214 483.128,302.239 483.432,302.207 483.735,302.245 484.038,302.245 484.342,302.213 484.645,302.199 484.948,302.221 485.252,302.246 485.555,302.201 485.858,302.222 486.162,302.225 486.465,302.25 486.768,302.229 487.071,302.198 487.375,302.214 487.678,302.239 487.981,297.39 488.285,302.199 488.588,302.217 488.891,302.25 489.195,302.234 489.498,302.203 489.801,302.215 490.105,302.219 490.408,302.274 490.711,302.214 491.014,302.208 491.318,302.243 491.621,302.239 491.924,302.219 492.228,302.201 492.531,302.223 492.834,302.229 493.138,302.254 493.441,302.197 493.744,302.22 494.048,302.248 494.351,302.236 494.654,302.199 494.957,302.215 495.261,302.235 495.564,302.213 495.867,302.245 496.171,302.2 496.474,302.237 496.777,294.681 497.081,302.207 497.384,302.215 497.687,302.245 497.991,302.242 498.294,302.178 498.597,302.229 498.9,302.227 499.204,302.252 499.507,302.218 499.81,302.198 500.114,302.221 500.417,302.245 500.72,302.225 501.024,302.176 501.327,302.252 501.63,302.241 501.934,302.229 502.237,302.197 502.54,302.211 502.843,302.246 503.147,302.235 503.45,302.213 503.753,302.18 504.057,302.272 504.36,302.242 504.663,302.214 504.967,302.194 505.27,302.233 505.573,302.253 505.877,297.562 506.18,302.196 506.483,302.231 506.786,302.237 507.09,302.193 507.393,302.233 507.696,302.218 508,302.254 508.303,302.231 508.606,302.201 508.91,302.221 509.213,302.248 509.516,302.235 509.82,302.182 510.123,302.245 510.426,302.237 510.729,302.246 511.033,302.221 511.336,302.204 511.639,302.233 511.943,302.25 512.246,302.221 512.549,302.169 512.853,302.256 513.156,302.245 513.459,302.227 513.763,302.201 514.066,302.217 514.369,302.243 514.672,297.181 514.976,302.193 515.279,302.22 515.582,302.252 515.886,302.209 516.189,302.233 516.492,302.212 516.796,302.243 517.099,302.25 517.402,302.202 517.706,302.202 518.009,302.233 518.312,302.239 518.615,302.195 518.919,302.235 519.222,302.228 519.525,302.254 519.829,302.221 520.132,302.191 520.435,302.22 520.739,302.246 521.042,302.243 521.345,302.184 521.648,302.245 521.726,302.243" stroke="#0071bc" stroke-width="0.5" stroke-linejoin="round"/>
  </g>
 </g>
</svg>
